/vscmnt/brussel_pixiu_data/_data_brussel/112/vsc11236/PredSimResults/SUBJ11opt3D/expIG/worker_01.mot
version=1
nRows=7
nColumns=50
inDegrees=yes
endheader
                time	         pelvis_tilt	         pelvis_list	     pelvis_rotation	           pelvis_tx	           pelvis_ty	           pelvis_tz	       hip_flexion_r	     hip_adduction_r	      hip_rotation_r	        knee_angle_r	       ankle_angle_r	         mtp_angle_r	       hip_flexion_l	     hip_adduction_l	      hip_rotation_l	        knee_angle_l	       ankle_angle_l	         mtp_angle_l	    lumbar_extension	      lumbar_bending	     lumbar_rotation	 ercspn_r/activation	 intobl_r/activation	 extobl_r/activation	    abd_r/activation	    add_r/activation	hamstrings_r/activation	bifemsh_r/activation	glut_max_r/activation	iliopsoas_r/activation	rect_fem_r/activation	  vasti_r/activation	gastroc_r/activation	 soleus_r/activation	tib_ant_r/activation	 ercspn_l/activation	 intobl_l/activation	 extobl_l/activation	    abd_l/activation	    add_l/activation	hamstrings_l/activation	bifemsh_l/activation	glut_max_l/activation	iliopsoas_l/activation	rect_fem_l/activation	  vasti_l/activation	gastroc_l/activation	 soleus_l/activation	tib_ant_l/activation	
          1.00000000	        -11.11571550	          2.46961851	         -9.52447100	          0.60000000	          0.93629043	          0.03262574	          0.47953894	         -1.77511666	         14.03257131	        -17.51461544	         15.35710384	         26.68613351	         36.25736456	         -3.88165907	          7.88156531	        -13.35690773	        -10.13433080	          0.36927099	          0.77931759	          1.51062581	         -2.57669114	          0.01000008	          0.01000002	          0.01000005	          0.10070957	          0.01000001	          0.01000001	          0.07464036	          0.04582361	          0.19421383	          0.16074268	          0.01000000	          0.09047090	          0.28598094	          0.01000005	          0.01342530	          0.13208848	          0.09137342	          0.00999999	          0.04109194	          0.01000001	          0.05332747	          0.01000000	          0.17697822	          0.05459558	          0.01888697	          0.01000000	          0.00999999	          0.11696940	
          1.02000000	        -11.50560178	          2.60838748	         -8.80436068	          0.61567587	          0.93353609	          0.02673051	          0.61610574	         -2.15464076	         12.49934448	        -18.84397867	         15.15923195	         28.26596712	         36.27773413	         -2.79141731	          7.80920010	        -14.35065904	         -8.31471385	          1.23793238	          1.14314480	          0.98101147	         -2.21125217	          0.04546408	          0.01000005	          0.01749402	          0.07553218	          0.09975463	          0.01000017	          0.05598031	          0.03436836	          0.14566042	          0.12055704	          0.01050111	          0.06785318	          0.27341718	          0.01000003	          0.01006901	          0.09906637	          0.06853007	          0.01000000	          0.03081896	          0.01000009	          0.05618217	          0.10991722	          0.13273367	          0.04094685	          0.01416523	          0.01777761	          0.01333334	          0.08772705	
          1.04000000	        -11.89856301	          2.82805728	         -8.00792135	          0.63132336	          0.93198157	          0.02066946	          0.94907055	         -2.60621541	         10.93107506	        -20.43069815	         14.50583129	         30.00344837	         36.32548001	         -1.77185700	          7.85407364	        -15.45623424	         -6.45014248	          2.31980134	          1.49596102	          0.32593647	         -1.84567006	          0.07868505	          0.01000002	          0.01312055	          0.05664914	          0.09434461	          0.01000024	          0.04198527	          0.04165936	          0.10924533	          0.11957570	          0.01333376	          0.05088989	          0.24675688	          0.01000008	          0.02850071	          0.07429979	          0.05139755	          0.02626274	          0.02311423	          0.02077254	          0.04213668	          0.17973842	          0.09955026	          0.03071031	          0.04251138	          0.01333321	          0.01000001	          0.06579530	
          1.06000000	        -12.28953544	          3.06286273	         -7.16290172	          0.64665661	          0.93220177	          0.01446131	          1.54608649	         -3.06140603	          9.25703484	        -22.32440613	         13.21490297	         31.92274951	         36.30419627	         -0.71880057	          7.97637078	        -16.30875572	         -5.08792221	          3.17925083	          1.80767756	         -0.35817096	         -1.46214780	          0.09548921	          0.01000001	          0.01000028	          0.04248686	          0.07577258	          0.01453066	          0.03148900	          0.04626185	          0.08193402	          0.08968183	          0.01000037	          0.03816742	          0.20728660	          0.01000005	          0.02137576	          0.05572485	          0.03854817	          0.01969710	          0.01733571	          0.02631058	          0.03160256	          0.14019241	          0.07466270	          0.02303294	          0.07470611	          0.01000001	          0.01000000	          0.06464960	
          1.08000000	        -12.66955625	          3.27374905	         -6.27607363	          0.66170669	          0.93389929	          0.00817662	          2.42794213	         -3.49216768	          7.47268475	        -24.61214260	         11.44996358	         33.78598386	         36.04712423	          0.30838892	          8.17666935	        -16.68033311	         -4.14332313	          3.73246888	          2.08525914	         -1.01963602	         -1.06580483	          0.09854083	          0.01000002	          0.01000009	          0.03186515	          0.10289795	          0.02803794	          0.02361680	          0.03514032	          0.06145052	          0.06726140	          0.01000595	          0.02862557	          0.16029441	          0.01000005	          0.03347809	          0.04179364	          0.02891113	          0.01477284	          0.02418853	          0.02847152	          0.02370197	          0.10514434	          0.05599703	          0.01727496	          0.08374545	          0.01000003	          0.01000000	          0.07202897	
          1.10000000	        -13.02774622	          3.41729316	         -5.35829278	          0.67653771	          0.93642215	          0.00187649	          3.60018634	         -3.87545078	          5.60790605	        -27.38097841	          9.51735895	         35.14811273	         35.48258806	          1.24999007	          8.46287605	        -16.51932043	         -3.48044078	          4.03828888	          2.33635123	         -1.60723879	         -0.65885927	          0.09778759	          0.01000002	          0.01000011	          0.02389887	          0.12795589	          0.02370420	          0.01771267	          0.02635524	          0.04608790	          0.05044607	          0.01000020	          0.02146918	          0.12022082	          0.01000004	          0.03294727	          0.03134524	          0.02168335	          0.01108010	          0.03235758	          0.03404058	          0.01777651	          0.07885832	          0.04199777	          0.01295665	          0.08553935	          0.01000003	          0.01000001	          0.07867858	
          1.12000000	        -13.35512025	          3.47369266	         -4.42287963	          0.69112189	          0.93921387	         -0.00440872	          5.05749720	         -4.22798813	          3.65536438	        -30.66120039	          7.69236752	         35.54726589	         34.65342594	          2.08110171	          8.85977466	        -15.94359124	         -2.97783940	          4.18466143	          2.55771036	         -2.09486394	         -0.23912288	          0.09703169	          0.01000002	          0.01000012	          0.01792416	          0.11910188	          0.01777817	          0.01328462	          0.01976643	          0.03456595	          0.03783458	          0.01000018	          0.01610189	          0.09016563	          0.01000002	          0.03837250	          0.02350895	          0.01626252	          0.02280982	          0.04468047	          0.03745384	          0.01333243	          0.06686544	          0.03149833	          0.01000148	          0.07641781	          0.01000003	          0.01000001	          0.08257698	
